<svg width="40" height="40" viewBox="0 0 40 40" fill="none" xmlns="http://www.w3.org/2000/svg">
<path fill-rule="evenodd" clip-rule="evenodd" d="M20.1893 0C17.6698 0 16.2001 1.68314 15.7802 2.52471C12.4209 10.5196 5.5763 28.0243 5.0724 34.0836C4.5685 40.1428 9.90141 40.3953 12.6308 39.7641L20.1893 35.9771L27.7477 39.7641C30.4772 40.3953 35.8101 40.1428 35.3062 34.0836C34.8023 28.0243 27.9577 10.5196 24.5984 2.52471C24.1785 1.68314 22.7088 0 20.1893 0Z" fill="#F06400"/>
<path d="M34.2798 22.3226L31.2531 13.7293C31.0488 13.1491 31.4119 12.5243 32.0254 12.4784C34.5555 12.2891 38.3904 12.7599 39.6818 15.7794C40.999 18.8591 37.9487 21.5235 35.6141 22.8541C35.1039 23.1449 34.4749 22.8765 34.2798 22.3226Z" fill="#F06400"/>
<path d="M5.72022 22.3226L8.74686 13.7293C8.95124 13.1491 8.58808 12.5243 7.97457 12.4784C5.44447 12.2891 1.60956 12.7599 0.318163 15.7794C-0.998981 18.8591 2.05127 21.5235 4.38587 22.8541C4.89609 23.1449 5.52512 22.8765 5.72022 22.3226Z" fill="#F06400"/>
<path d="M15.5105 22.28C14.7122 22.28 14.18 22.9467 14.0136 23.28C13.5147 28.28 17.5064 30.78 20.5002 30.78C23.494 30.78 25.6061 27.314 25.9887 25.78C26.4877 23.78 26.4877 23.28 25.4898 22.28C24.4919 21.28 21.4981 23.28 20.0012 23.28C18.5043 23.28 16.5085 22.28 15.5105 22.28Z" fill="#00263E"/>
<mask id="mask0_3_1004" style="mask-type:alpha" maskUnits="userSpaceOnUse" x="13" y="22" width="14" height="9">
<path d="M15.5105 22.28C14.7122 22.28 14.18 22.9467 14.0136 23.28C13.5147 28.28 17.5064 30.78 20.5002 30.78C23.494 30.78 25.6061 27.314 25.9887 25.78C26.4877 23.78 26.4877 23.28 25.4898 22.28C24.4919 21.28 21.4981 23.28 20.0012 23.28C18.5043 23.28 16.5085 22.28 15.5105 22.28Z" fill="#BDE1EC"/>
</mask>
<g mask="url(#mask0_3_1004)">
<path d="M15.5105 17.56C14.7122 17.56 14.18 18.2267 14.0136 18.56C13.5147 23.56 17.5064 26.0601 20.5002 26.0601C23.494 26.0601 25.6061 22.594 25.9887 21.0601C26.4877 19.0601 26.4877 18.56 25.4898 17.56C24.4919 16.56 21.4981 18.56 20.0012 18.56C18.5043 18.56 16.5085 17.56 15.5105 17.56Z" fill="#BDE1EC"/>
</g>
<path d="M18.9607 28.28C17.7632 27.48 15.8006 27.6133 14.969 27.78L14.969 27.78C15.3016 28.28 15.7673 28.98 16.9649 29.78C18.1624 30.58 20.125 31.1134 20.9566 30.78C20.6239 30.4467 20.1582 29.08 18.9607 28.28Z" fill="#405C70"/>
<path d="M13.9711 11C14.3702 10.4043 15.5278 9.45125 16.9649 10.4043" stroke="#00263E" stroke-linecap="round"/>
<path d="M25.9463 11C25.5471 10.4043 24.3895 9.45125 22.9525 10.4043" stroke="#00263E" stroke-linecap="round"/>
<path d="M18.9606 16C18.9606 18.2091 16.2799 20 12.9731 20C9.66621 20 6.98547 17.2091 6.98547 15C6.98547 12.7909 9.66621 12 12.9731 12C16.2799 12 18.9606 12.7931 18.9606 16Z" fill="#00263E"/>
<path d="M12.4741 12.5C7.66742 12.5 6.98547 13.5 6.98547 14.5C6.98547 16 9.93797 20 12.9731 20C16.4658 20 18.9606 18 18.9606 15.5C18.9606 13 18.4617 12.5 12.4741 12.5Z" stroke="#F06400" stroke-opacity="0.5" stroke-linecap="round"/>
<ellipse cx="10.4782" cy="15" rx="1.4969" ry="1" fill="#405C70"/>
<path d="M20.9565 16C20.9565 18.2091 23.6372 20 26.9441 20C30.2509 20 32.9316 17.2091 32.9316 15C32.9316 12.7909 30.2509 12 26.9441 12C23.6372 12 20.9565 12.7931 20.9565 16Z" fill="#00263E"/>
<path d="M27.443 12.5C32.2497 12.5 32.9316 13.5 32.9316 14.5C32.9316 16 29.9791 20 26.9441 20C23.4513 20 20.9565 18 20.9565 15.5C20.9565 13 21.4554 12.5 27.443 12.5Z" stroke="#F06400" stroke-opacity="0.5" stroke-linecap="round"/>
<ellipse cx="1.4969" cy="1" rx="1.4969" ry="1" transform="matrix(-1 0 0 1 30.9358 14)" fill="#405C70"/>
<path d="M22.4535 2.5C22.7861 2.83333 23.4514 3.7 23.4514 4.5" stroke="white" stroke-opacity="0.5" stroke-linecap="round"/>
<path d="M37.9214 15C38.254 15.3333 38.9193 16.2 38.9193 17" stroke="white" stroke-opacity="0.5" stroke-linecap="round"/>
</svg>
