<svg width="98" height="97" viewBox="0 0 98 97" fill="none" xmlns="http://www.w3.org/2000/svg">
<path d="M55.3891 87.0397C56.3309 92.5406 61.6183 96.332 66.8084 94.2803C74.8925 91.0845 82.038 85.7643 87.4423 78.8007C94.9283 69.1548 98.5306 57.0551 97.5396 44.8854C96.5486 32.7157 91.0361 21.3583 82.088 13.0507C73.14 4.74301 61.4053 0.0874799 49.1956 0.00122039C36.9858 -0.0850391 25.1865 4.40422 16.122 12.5846C7.05745 20.765 1.38502 32.0434 0.222159 44.1979C-0.940704 56.3524 2.49032 68.5017 9.8393 78.2525C15.1447 85.2917 22.2142 90.7124 30.2524 94.022C35.413 96.1468 40.7534 92.4306 41.7729 86.9435C42.7924 81.4564 39.0073 76.3185 34.2105 73.4656C31.0406 71.5802 28.2373 69.0842 25.9791 66.0881C21.6706 60.3715 19.6591 53.2486 20.3408 46.1227C21.0226 38.9968 24.3482 32.3846 29.6625 27.5886C34.9768 22.7926 41.8945 20.1607 49.0528 20.2113C56.211 20.2618 63.0908 22.9913 68.3368 27.8618C73.5829 32.7324 76.8147 39.391 77.3957 46.5258C77.9767 53.6606 75.8648 60.7544 71.4759 66.4095C69.1756 69.3735 66.3374 71.8296 63.1411 73.67C58.3045 76.4548 54.4472 81.5387 55.3891 87.0397Z" fill="white"/>
<circle cx="48.8503" cy="48.8503" r="17.5124" fill="white"/>
</svg>
