<svg width="54" height="63" viewBox="0 0 54 63" fill="none" xmlns="http://www.w3.org/2000/svg">
<path fill-rule="evenodd" clip-rule="evenodd" d="M53 26.9827C53 48.6363 31.3333 61.6277 27 61.6277C22.6667 61.6277 1 48.6363 1 26.9827C1.00345 20.0897 3.74438 13.4803 8.62008 8.60783C13.4958 3.73538 20.107 0.99885 27 1C41.3563 1 53 12.635 53 26.9827Z" fill="#ED6723" stroke="white" stroke-width="2" stroke-linecap="square"/>
<path fill-rule="evenodd" clip-rule="evenodd" d="M26.9999 35.6449C29.2977 35.6449 31.5015 34.7324 33.1266 33.108C34.7518 31.4837 35.6654 29.2804 35.6666 26.9826C35.6666 24.684 34.7535 22.4796 33.1282 20.8543C31.5029 19.229 29.2985 18.3159 26.9999 18.3159C24.7014 18.3159 22.497 19.229 20.8717 20.8543C19.2463 22.4796 18.3333 24.684 18.3333 26.9826C18.3344 29.2804 19.248 31.4837 20.8732 33.108C22.4984 34.7324 24.7021 35.6449 26.9999 35.6449Z" fill="white" stroke="#ED6723" stroke-linecap="square"/>
</svg>
