<svg width="24" height="24" viewBox="0 0 24 24" fill="none" xmlns="http://www.w3.org/2000/svg">
<circle cx="16.8347" cy="15.6" r="1.8" fill="white"/>
<circle cx="7.23457" cy="15.6" r="1.8" fill="white"/>
<path fill-rule="evenodd" clip-rule="evenodd" d="M4.53437 15.3C3.33435 15.6 2.4344 14.7 2.4344 14.1C2.4344 13.8618 2.42566 13.6197 2.41698 13.3792C2.38577 12.5142 2.35529 11.6697 2.7344 11.1C3.10626 10.5412 4.27383 10.2891 4.53436 10.3325C4.93436 9.03253 6.15437 6.37252 7.83437 6.13252C9.51437 5.89252 12.3344 6.03252 13.5344 6.13252C14.1344 6.23252 15.6944 7.21252 17.1344 10.3325C18.9344 10.3326 21.0344 10.6326 21.3344 11.8326C21.5744 12.7926 21.6344 13.6326 21.3344 14.5326C21.0344 15.1326 20.4944 15.4325 19.5344 15.4325L19.5206 15.3774C19.2248 14.1922 18.9023 12.9 16.8344 12.9C14.6744 12.9 14.1344 14.9 14.1344 15.9H9.93437C10.0344 14.9 9.63437 12.9 7.23437 12.9C4.83437 12.9 4.53437 14.4 4.53437 15.3ZM10.2 9.90001V7.50001H8.36543C7.19734 7.5 6.82002 9.01605 6.61632 9.83454L6.6 9.90001H10.2ZM11.4346 7.5V9.9H15.0346C14.8346 9.1 14.2546 7.5 13.5346 7.5H11.4346Z" fill="white"/>
</svg>
