<svg width="24" height="24" viewBox="0 0 24 24" fill="none" xmlns="http://www.w3.org/2000/svg">
<path fill-rule="evenodd" clip-rule="evenodd" d="M12.0159 2.39996C10.8159 2.39996 10.1159 3.19996 9.91593 3.59996C8.31593 7.39996 5.05593 15.72 4.81593 18.6C4.57593 21.48 7.11593 21.6 8.41593 21.3L12.0159 19.5L15.6159 21.3C16.9159 21.6 19.4559 21.48 19.2159 18.6C18.9759 15.72 15.7159 7.39996 14.1159 3.59996C13.9159 3.19996 13.2159 2.39996 12.0159 2.39996Z" fill="white"/>
<path d="M18.6822 12.8825L17.3345 9.06402C17.2115 8.7157 17.4302 8.34067 17.7991 8.32187C19.0009 8.26062 20.7093 8.52149 21.3001 9.89997C21.9058 11.3132 20.5725 12.5425 19.479 13.1949C19.1767 13.3752 18.7993 13.2144 18.6822 12.8825Z" fill="white"/>
<path d="M5.16953 12.8825L6.51722 9.06402C6.64015 8.7157 6.42152 8.34067 6.05262 8.32187C4.85075 8.26062 3.14236 8.52149 2.55159 9.89997C1.9459 11.3132 3.27921 12.5425 4.3727 13.1949C4.67501 13.3752 5.05237 13.2144 5.16953 12.8825Z" fill="white"/>
</svg>
