<svg width="24" height="24" viewBox="0 0 24 24" fill="none" xmlns="http://www.w3.org/2000/svg">
<path fill-rule="evenodd" clip-rule="evenodd" d="M5.53865 5.75307C5.05865 6.47307 5.93865 7.05307 6.43865 7.25307C7.02124 7.59027 7.19016 9.25244 7.47409 12.0462L7.4999 12.3C7.68754 14.1432 8.9999 14.9 9.5999 15C9.8396 15.012 10.1178 15.0279 10.4234 15.0454L10.4236 15.0454C12.6681 15.1737 16.3937 15.3868 17.2386 14.7531C18.2355 14.0054 18.6113 11.8085 18.8819 10.2263L18.8819 10.2263C18.9371 9.90387 18.9878 9.60699 19.0386 9.35309C19.2786 8.15309 18.5386 7.85309 18.1386 7.85309C15.1386 7.75309 8.95862 7.55307 8.23862 7.55307C8.23862 5.75307 6.13865 4.85307 5.53865 5.75307ZM11.5389 8.99998C11.8702 8.99998 12.1389 9.26861 12.1389 9.59998V12.6C12.1389 12.9314 11.8702 13.2 11.5389 13.2C11.2075 13.2 10.9389 12.9314 10.9389 12.6V9.59998C10.9389 9.26861 11.2075 8.99998 11.5389 8.99998ZM14.8389 9.59998C14.8389 9.26861 14.5702 8.99998 14.2389 8.99998C13.9075 8.99998 13.6389 9.26861 13.6389 9.59998V12.6C13.6389 12.9314 13.9075 13.2 14.2389 13.2C14.5702 13.2 14.8389 12.9314 14.8389 12.6V9.59998Z" fill="white"/>
<circle cx="15.439" cy="17.4" r="1.2" fill="white"/>
<circle cx="10.639" cy="17.4" r="1.2" fill="white"/>
</svg>
