<svg width="24" height="24" viewBox="0 0 24 24" fill="none" xmlns="http://www.w3.org/2000/svg">
<path fill-rule="evenodd" clip-rule="evenodd" d="M11.925 4.79999C10.425 4.79999 5.75918 7.83166 5.62501 8.09999C5.32502 8.69999 5.32503 13.8 5.62501 14.7C5.83713 15.3364 10.725 18.6 11.625 18.6C12.825 18.6 18.225 15.6 18.225 14.7C18.225 14.4786 18.2613 14.0032 18.3071 13.4031C18.4475 11.5635 18.6774 8.55242 18.225 8.09999C17.9799 7.85487 17.1339 7.25927 16.1167 6.64046C14.0667 7.66101 10.5089 9.44562 10.3067 10.0147C10.2001 10.3147 10.2001 12 10.2001 13.2L8.80672 11.4L7.80013 12C7.80013 11 7.80013 9.6 7.90669 8.7C7.96365 8.219 11.6596 6.3254 13.7763 5.37272C13.0333 5.03092 12.3637 4.79999 11.925 4.79999Z" fill="white"/>
</svg>
