<svg width="24" height="24" viewBox="0 0 24 24" fill="none" xmlns="http://www.w3.org/2000/svg">
<path d="M13.6599 16.0963H15.9967V18.4331C15.9967 18.7364 16.2432 18.9829 16.5466 18.9829C16.8499 18.9829 17.0964 18.7364 17.0964 18.4331V16.0963H19.4332C19.7365 16.0963 19.983 15.8498 19.983 15.5465C19.983 15.2431 19.7365 14.9966 19.4332 14.9966H17.0964V12.6598C17.0964 12.3565 16.8499 12.11 16.5466 12.11C16.2432 12.11 15.9967 12.3565 15.9967 12.6598V14.9966H13.6599C13.3566 14.9966 13.1101 15.2431 13.1101 15.5465C13.1101 15.8498 13.3566 16.0963 13.6599 16.0963Z" fill="white" stroke="white" stroke-width="0.274916"/>
<rect x="5" y="4" width="6.59799" height="6.59799" rx="1.6495" fill="white"/>
<rect x="13.2476" y="4" width="6.59799" height="6.59799" rx="1.6495" fill="white"/>
<rect x="5" y="12.2475" width="6.59799" height="6.59799" rx="1.6495" fill="white"/>
</svg>
