<svg width="24" height="24" viewBox="0 0 24 24" fill="none" xmlns="http://www.w3.org/2000/svg">
<path d="M9.30637 13.86C9.30637 13.359 9.71055 12.9527 10.2033 12.9527H13.8022C14.3005 12.9527 14.7047 13.359 14.7047 13.86C14.7047 14.361 14.3005 14.7618 13.8022 14.7618H10.2033C9.70501 14.7673 9.30637 14.361 9.30637 13.86ZM7.05291 10.2419C7.05291 9.74088 7.45709 9.3401 7.9554 9.3401H16.0557C16.554 9.3401 16.9526 9.74644 16.9526 10.2419C16.9526 10.7428 16.5484 11.1492 16.0557 11.1492H7.9554C7.45709 11.1436 7.05291 10.7428 7.05291 10.2419ZM11.8533 3C10.2864 3.00557 8.72501 3.09463 7.15811 3.26162C5.09843 3.47871 3.47062 5.13748 3.21593 7.20261C3.07751 8.34372 3.00554 9.48483 3 10.6259V10.7595C3.00554 11.9006 3.07198 13.0417 3.21593 14.1884C3.47062 16.2535 5.09843 17.9123 7.15811 18.1294C8.68625 18.2908 10.2144 18.3799 11.7425 18.391H12.2575C12.4721 18.3895 12.6867 18.3865 12.9013 18.382C13.5025 18.3696 14.1036 18.3457 14.7047 18.3097C15.4171 18.267 16.1295 18.2073 16.8419 18.1294C17.0318 18.1094 17.2181 18.0771 17.4 18.0334C19.1901 17.6029 20.5529 16.0631 20.7841 14.1884C20.928 13.025 21 11.8617 21 10.6983C21 9.53493 20.928 8.37156 20.7841 7.20818C20.5294 5.14306 18.9016 3.48426 16.8419 3.26718C15.275 3.10018 13.7136 3.01112 12.1467 3.00555H11.8533V3Z" fill="#D9D9D9"/>
<path d="M14.7047 18.3097C14.1036 18.3457 13.5025 18.3696 12.9013 18.382L14.913 20.6893C15.4198 21.2707 16.3662 21.0836 16.6138 20.3532L17.4 18.0334C17.2181 18.0771 17.0318 18.1094 16.8419 18.1294C16.1295 18.2073 15.4171 18.267 14.7047 18.3097Z" fill="#D9D9D9"/>
</svg>
