<svg width="25" height="24" viewBox="0 0 25 24" fill="none" xmlns="http://www.w3.org/2000/svg">
<path d="M14.7334 16.2303L14.75 19.5V20.8C14.75 20.9104 14.8395 21 14.95 21H16.25C19.1495 21 21.5 18.6495 21.5 15.75V10.8328C21.5011 10.6258 21.4594 10.4209 21.3774 10.2308C21.2954 10.0407 21.175 9.86969 21.0238 9.72843L13.5237 2.65218C13.5201 2.64898 13.5166 2.64554 13.5134 2.64187C13.2373 2.39074 12.8775 2.25159 12.5042 2.25159C12.131 2.25159 11.7711 2.39074 11.495 2.64187L11.4847 2.65218L3.98469 9.72843C3.83187 9.86895 3.70989 10.0397 3.62646 10.2298C3.54303 10.4199 3.49997 10.6252 3.5 10.8328V15.75C3.5 18.6495 5.85051 21 8.75 21H10.05C10.1605 21 10.25 20.9104 10.25 20.8V19.5V16.2417C10.25 15.0036 11.2537 14 12.4917 14C13.7254 14 14.7272 14.9967 14.7334 16.2303Z" fill="#D9D9D9"/>
</svg>
