<svg width="24" height="24" viewBox="0 0 24 24" fill="none" xmlns="http://www.w3.org/2000/svg">
<path fill-rule="evenodd" clip-rule="evenodd" d="M12.5476 2.35783C11.9599 1.88072 11.1183 1.88072 10.5306 2.35783L8.809 3.75556C8.56779 3.95138 8.27479 4.07275 7.96576 4.10483L5.76006 4.33386C5.00714 4.41204 4.41204 5.00714 4.33386 5.76006L4.10483 7.96576C4.07275 8.27479 3.95138 8.56779 3.75556 8.809L2.35783 10.5306C1.88072 11.1183 1.88072 11.9599 2.35783 12.5476L3.75556 14.2692C3.95138 14.5104 4.07275 14.8034 4.10483 15.1124L4.33386 17.3181C4.41204 18.071 5.00714 18.6661 5.76006 18.7443L7.96576 18.9733C8.27479 19.0054 8.56779 19.1268 8.80899 19.3226L10.5306 20.7203C11.1183 21.1974 11.9599 21.1974 12.5476 20.7203L14.2692 19.3226C14.5104 19.1268 14.8034 19.0054 15.1124 18.9733L17.3181 18.7443C18.071 18.6661 18.6661 18.071 18.7443 17.3181L18.9733 15.1124C19.0054 14.8034 19.1268 14.5104 19.3226 14.2692L20.7203 12.5476C21.1974 11.9599 21.1974 11.1183 20.7203 10.5306L19.3226 8.80899C19.1268 8.56779 19.0054 8.27479 18.9733 7.96576L18.7443 5.76006C18.6661 5.00714 18.071 4.41204 17.3181 4.33386L15.1124 4.10483C14.8034 4.07275 14.5104 3.95138 14.2692 3.75556L12.5476 2.35783ZM9.03406 15.0341L15.0341 9.03406C15.3074 8.76069 15.3074 8.31748 15.0341 8.04411C14.7607 7.77074 14.3175 7.77074 14.0441 8.04411L8.04411 14.0441C7.77074 14.3175 7.77074 14.7607 8.04411 15.0341C8.31748 15.3074 8.76069 15.3074 9.03406 15.0341ZM13.7301 14.5391C13.7301 14.0973 14.0882 13.7391 14.5301 13.7391H14.5481C14.9899 13.7391 15.3481 14.0973 15.3481 14.5391C15.3481 14.9809 14.9899 15.3391 14.5481 15.3391H14.5301C14.0882 15.3391 13.7301 14.9809 13.7301 14.5391ZM8.53009 7.73908C8.08826 7.73908 7.73008 8.09726 7.73008 8.53908C7.73008 8.98091 8.08826 9.33908 8.53009 9.33908H8.54808C8.98991 9.33908 9.34808 8.98091 9.34808 8.53908C9.34808 8.09726 8.98991 7.73908 8.54808 7.73908H8.53009Z" fill="#D9D9D9"/>
</svg>
