<svg width="24" height="24" viewBox="0 0 24 24" fill="none" xmlns="http://www.w3.org/2000/svg">
<path d="M2.4713 14.9489L4.412 18.2359C4.54084 18.4539 4.75285 18.6129 5.00141 18.678C5.24997 18.743 5.51474 18.7087 5.73749 18.5827L7.0921 17.817C7.6549 18.2511 8.27689 18.6074 8.93091 18.8734V20.3915C8.93091 20.6434 9.03314 20.8851 9.21511 21.0632C9.39709 21.2414 9.6439 21.3415 9.90125 21.3415H13.7826C14.04 21.3415 14.2868 21.2414 14.4688 21.0632C14.6508 20.8851 14.753 20.6434 14.753 20.3915V18.8734C15.4121 18.6047 16.0308 18.2493 16.5918 17.817L17.9464 18.5827C18.4093 18.8439 19.0051 18.6872 19.2719 18.2359L21.2126 14.9489C21.3403 14.7306 21.3747 14.4717 21.3084 14.2287C21.2421 13.9856 21.0803 13.7781 20.8584 13.6512L19.5271 12.8979C19.6311 12.1972 19.6305 11.4855 19.5252 10.7851L20.8565 10.0317C21.3184 9.77046 21.4785 9.18621 21.2107 8.73401L19.27 5.44701C19.1411 5.22898 18.9291 5.06998 18.6805 5.00495C18.432 4.93993 18.1672 4.97421 17.9445 5.10026L16.5899 5.86596C16.0295 5.43312 15.4111 5.07767 14.752 4.80956V3.29146C14.752 3.03951 14.6498 2.79787 14.4678 2.61971C14.2858 2.44155 14.039 2.34146 13.7817 2.34146H9.90028C9.64293 2.34146 9.39612 2.44155 9.21414 2.61971C9.03217 2.79787 8.92993 3.03951 8.92993 3.29146V4.80956C8.2708 5.07823 7.65217 5.43364 7.09113 5.86596L5.73749 5.10026C5.62723 5.03772 5.50545 4.99708 5.37913 4.98066C5.25281 4.96424 5.12442 4.97236 5.00131 5.00457C4.8782 5.03678 4.76278 5.09243 4.66166 5.16835C4.56054 5.24427 4.4757 5.33896 4.412 5.44701L2.4713 8.73401C2.34359 8.95232 2.30915 9.2112 2.37549 9.45425C2.44183 9.69731 2.60356 9.90486 2.82548 10.0317L4.15679 10.7851C4.05213 11.4856 4.05213 12.1973 4.15679 12.8979L2.82548 13.6512C2.36359 13.9125 2.20348 14.4967 2.4713 14.9489ZM11.841 8.04146C13.9816 8.04146 15.7224 9.74576 15.7224 11.8415C15.7224 13.9372 13.9816 15.6415 11.841 15.6415C9.70039 15.6415 7.95959 13.9372 7.95959 11.8415C7.95959 9.74576 9.70039 8.04146 11.841 8.04146Z" fill="#D9D9D9"/>
</svg>
