<svg width="24" height="24" viewBox="0 0 24 24" fill="none" xmlns="http://www.w3.org/2000/svg">
<path fill-rule="evenodd" clip-rule="evenodd" d="M8.71429 4.85715C7.00941 4.85715 5.57281 6.0058 5.13617 7.57142H19.0799C18.6432 6.0058 17.2066 4.85715 15.5017 4.85715H8.71429ZM5 15.3589V8.99999H19.216V14.6304C18.4938 14.028 17.5645 13.6655 16.5505 13.6655C14.2509 13.6655 12.3867 15.5297 12.3867 17.8293C12.3867 18.2625 12.4529 18.6804 12.5757 19.0732H8.71428C6.66294 19.0732 5 17.4102 5 15.3589ZM9.5715 10.8571C9.09811 10.8571 8.71436 11.2409 8.71436 11.7143V12.2857C8.71436 12.7591 9.09811 13.1429 9.5715 13.1429H10.1429C10.6163 13.1429 11.0001 12.7591 11.0001 12.2857V11.7143C11.0001 11.2409 10.6163 10.8571 10.1429 10.8571H9.5715ZM8.71436 15.4286C8.71436 14.9552 9.09811 14.5714 9.5715 14.5714H10.1429C10.6163 14.5714 11.0001 14.9552 11.0001 15.4286V16C11.0001 16.4734 10.6163 16.8572 10.1429 16.8572H9.5715C9.09811 16.8572 8.71436 16.4734 8.71436 16V15.4286ZM13.8571 10.8571C13.3838 10.8571 13 11.2409 13 11.7143V12.2857C13 12.7591 13.3838 13.1429 13.8571 13.1429H14.4286C14.902 13.1429 15.2857 12.7591 15.2857 12.2857V11.7143C15.2857 11.2409 14.902 10.8571 14.4286 10.8571H13.8571Z" fill="white"/>
<rect x="13.5713" y="4" width="1.71429" height="1.71429" rx="0.571429" fill="white"/>
<rect x="13.5713" y="4" width="1.71429" height="1.71429" rx="0.571429" fill="white"/>
<rect x="13.5713" y="4" width="1.71429" height="1.71429" rx="0.571429" fill="white"/>
<rect x="8.71436" y="4" width="1.71429" height="1.71429" rx="0.571429" fill="white"/>
<rect x="8.71436" y="4" width="1.71429" height="1.71429" rx="0.571429" fill="white"/>
<rect x="8.71436" y="4" width="1.71429" height="1.71429" rx="0.571429" fill="white"/>
<path fill-rule="evenodd" clip-rule="evenodd" d="M16.5504 20.8502C18.2188 20.8502 19.5714 19.4977 19.5714 17.8293C19.5714 16.1609 18.2188 14.8084 16.5504 14.8084C14.882 14.8084 13.5295 16.1609 13.5295 17.8293C13.5295 19.4977 14.882 20.8502 16.5504 20.8502ZM16.5504 15.5889C16.7082 15.5889 16.8361 15.7168 16.8361 15.8746V17.3659H17.972C18.1298 17.3659 18.2577 17.4938 18.2577 17.6516C18.2577 17.8094 18.1298 17.9373 17.972 17.9373H16.2646V15.8746C16.2646 15.7168 16.3926 15.5889 16.5504 15.5889Z" fill="white"/>
</svg>
