<svg width="24" height="24" viewBox="0 0 24 24" fill="none" xmlns="http://www.w3.org/2000/svg">
<path fill-rule="evenodd" clip-rule="evenodd" d="M17.3551 8.44C17.4761 9.63731 17.2131 10.8421 16.6041 11.88C20.0441 13.547 21.0001 17.043 21.0001 18.832H19.0001C19.0001 18.789 18.9511 14.533 14.7191 13.293L13.1011 12.818L14.2931 11.626C14.6824 11.2392 14.9806 10.7705 15.1661 10.254C15.3515 9.73746 15.4195 9.1861 15.3651 8.64C15.2471 7.465 14.5661 6.408 13.4471 5.666L14.5521 4C16.1801 5.079 17.1761 6.656 17.3551 8.44ZM13.5 8.83203C13.5 11.038 11.706 12.832 9.5 12.832C7.294 12.832 5.5 11.038 5.5 8.83203C5.5 6.62603 7.294 4.83203 9.5 4.83203C11.706 4.83203 13.5 6.62603 13.5 8.83203ZM2 19.832C2 16.523 4.691 13.832 8 13.832H11C14.309 13.832 17 16.523 17 19.832V20.832H2V19.832Z" fill="white"/>
</svg>
