<svg width="24" height="24" viewBox="0 0 24 24" fill="none" xmlns="http://www.w3.org/2000/svg">
<path fill-rule="evenodd" clip-rule="evenodd" d="M13.0572 2.37512C12.4411 1.87496 11.5589 1.87496 10.9428 2.37512L9.138 3.84038C8.88514 4.04567 8.57798 4.1729 8.25402 4.20654L5.94174 4.44663C5.15245 4.52858 4.52858 5.15245 4.44663 5.94174L4.20654 8.25402C4.1729 8.57798 4.04567 8.88514 3.84038 9.138L2.37512 10.9428C1.87496 11.5589 1.87496 12.4411 2.37512 13.0572L3.84038 14.862C4.04567 15.1149 4.1729 15.422 4.20654 15.746L4.44663 18.0583C4.52858 18.8476 5.15244 19.4714 5.94174 19.5534L8.25402 19.7935C8.57798 19.8271 8.88514 19.9543 9.138 20.1596L10.9428 21.6249C11.5589 22.125 12.4411 22.125 13.0572 21.6249L14.862 20.1596C15.1149 19.9543 15.422 19.8271 15.746 19.7935L18.0583 19.5534C18.8476 19.4714 19.4714 18.8476 19.5534 18.0583L19.7935 15.746C19.8271 15.422 19.9543 15.1149 20.1596 14.862L21.6249 13.0572C22.125 12.4411 22.125 11.5589 21.6249 10.9428L20.1596 9.138C19.9543 8.88514 19.8271 8.57798 19.7935 8.25402L19.5534 5.94174C19.4714 5.15245 18.8476 4.52858 18.0583 4.44663L15.746 4.20654C15.422 4.1729 15.1149 4.04567 14.862 3.84038L13.0572 2.37512ZM9.37393 15.6638L15.6638 9.37393C15.9504 9.08736 15.9504 8.62273 15.6638 8.33615C15.3773 8.04958 14.9126 8.04958 14.6261 8.33615L8.33615 14.6261C8.04958 14.9126 8.04958 15.3773 8.33615 15.6638C8.62273 15.9504 9.08736 15.9504 9.37393 15.6638ZM14.2968 15.145C14.2968 14.6818 14.6723 14.3063 15.1355 14.3063H15.1544C15.6175 14.3063 15.993 14.6818 15.993 15.145C15.993 15.6081 15.6175 15.9836 15.1544 15.9836H15.1355C14.6723 15.9836 14.2968 15.6081 14.2968 15.145ZM8.84561 8.01639C8.38243 8.01639 8.00695 8.39187 8.00695 8.85504C8.00695 9.31822 8.38243 9.6937 8.84561 9.6937H8.86448C9.32765 9.6937 9.70313 9.31822 9.70313 8.85504C9.70313 8.39187 9.32765 8.01639 8.86448 8.01639H8.84561Z" fill="white"/>
</svg>
