<svg width="24" height="24" viewBox="0 0 24 24" fill="none" xmlns="http://www.w3.org/2000/svg">
<path d="M7.56076 17.2183C7.27776 17.189 7.05628 16.978 7.02552 16.7085C6.99476 16.4272 6.99476 16.1459 7.02552 15.8646C7.05628 15.5951 7.27776 15.3841 7.56076 15.3548C7.85607 15.3255 8.15137 15.3255 8.44668 15.3548C8.72968 15.3841 8.95116 15.5951 8.98192 15.8646C9.01268 16.1459 9.01268 16.4272 8.98192 16.7085C8.95116 16.978 8.72968 17.189 8.44668 17.2183C8.29903 17.23 8.15137 17.2417 8.00372 17.2417C7.84991 17.2417 7.70841 17.2359 7.56076 17.2183ZM11.5597 17.2183C11.2767 17.189 11.0552 16.978 11.0245 16.7085C10.9937 16.4272 10.9937 16.1459 11.0245 15.8646C11.0552 15.5951 11.2767 15.3841 11.5597 15.3548C11.855 15.3255 12.1503 15.3255 12.4456 15.3548C12.7286 15.3841 12.9501 15.5951 12.9809 15.8646C13.0116 16.1459 13.0116 16.4272 12.9809 16.7085C12.9501 16.978 12.7286 17.189 12.4456 17.2183C12.298 17.23 12.1503 17.2417 12.0027 17.2417C11.855 17.2417 11.7073 17.2359 11.5597 17.2183ZM7.56076 13.4093C7.27776 13.38 7.05628 13.1691 7.02552 12.8995C6.99476 12.6182 6.99476 12.337 7.02552 12.0557C7.05628 11.7861 7.27776 11.5751 7.56076 11.5458C7.85607 11.5165 8.15137 11.5165 8.44668 11.5458C8.72968 11.5751 8.95116 11.7861 8.98192 12.0557C9.01268 12.337 9.01268 12.6182 8.98192 12.8995C8.95116 13.1691 8.72968 13.38 8.44668 13.4093C8.29903 13.421 8.15137 13.4328 8.00372 13.4328C7.84991 13.4328 7.70841 13.421 7.56076 13.4093ZM11.5597 13.4093C11.2767 13.38 11.0552 13.1691 11.0245 12.8995C10.9937 12.6182 10.9937 12.337 11.0245 12.0557C11.0552 11.7861 11.2767 11.5751 11.5597 11.5458C11.855 11.5165 12.1503 11.5165 12.4456 11.5458C12.7286 11.5751 12.9501 11.7861 12.9809 12.0557C13.0116 12.337 13.0116 12.6182 12.9809 12.8995C12.9501 13.1691 12.7286 13.38 12.4456 13.4093C12.298 13.421 12.1503 13.4328 12.0027 13.4328C11.855 13.4328 11.7073 13.421 11.5597 13.4093ZM15.5586 13.4093C15.2756 13.38 15.0542 13.1691 15.0234 12.8995C14.9926 12.6182 14.9926 12.337 15.0234 12.0557C15.0542 11.7861 15.2756 11.5751 15.5586 11.5458C15.8539 11.5165 16.1492 11.5165 16.4446 11.5458C16.7276 11.5751 16.949 11.7861 16.9798 12.0557C17.0106 12.337 17.0106 12.6182 16.9798 12.8995C16.949 13.1691 16.7276 13.38 16.4446 13.4093C16.2969 13.421 16.1492 13.4328 16.0016 13.4328C15.8539 13.4328 15.7063 13.421 15.5586 13.4093ZM2.10375 9.61794C1.93149 11.9736 1.97456 14.3352 2.2268 16.6909C2.51596 19.3747 4.75536 21.5078 7.57308 21.7832C8.95117 21.918 10.3354 21.9883 11.7135 22H12.2857C13.6637 21.9883 15.048 21.918 16.4261 21.7832C19.2438 21.5078 21.4832 19.3747 21.7724 16.6909C21.92 15.3314 21.9938 13.966 22 12.6065V12.3487C21.9938 11.4404 21.9631 10.5262 21.8954 9.61794H2.10375ZM14.9988 2C14.4451 2 14.0021 2.42776 14.0021 2.95516V2.99618C12.6671 2.93758 11.3321 2.93758 10.0032 2.99618V2.95516C10.0032 2.42776 9.55407 2 9.00037 2C8.44668 2 8.00372 2.42776 8.00372 2.95516V3.13097C7.86222 3.14269 7.72072 3.15441 7.57922 3.17199C4.95837 3.42983 2.83587 5.29328 2.31908 7.7193H21.6924C21.1756 5.29914 19.0531 3.42983 16.4323 3.17199C16.2908 3.15441 16.1492 3.14269 16.0016 3.13097V2.95516C16.0016 2.42776 15.5525 2 14.9988 2Z" fill="white"/>
</svg>
