<svg width="24" height="24" viewBox="0 0 24 24" fill="none" xmlns="http://www.w3.org/2000/svg">
<path d="M3.34884 14.2988C3.17955 14.4877 3.08187 14.7352 3.07536 14.9891C3.02978 16.9168 2.96468 18.8054 3.02328 20.4725C3.0363 20.746 3.25117 20.9674 3.52464 20.9739C4.00648 20.987 4.50785 21 5.02224 21C6.28543 21 7.63978 20.9609 9.00715 20.9284C9.2611 20.9219 9.50853 20.8242 9.69736 20.6548C12.2693 18.3495 14.7306 15.9334 17.0942 13.4197L10.5764 6.90738C8.06953 9.26483 5.65384 11.7265 3.34884 14.2988ZM15.9091 3C15.3036 3 14.698 3.20839 14.2227 3.62518C13.5195 4.23082 12.8293 4.84298 12.1456 5.46165L18.5397 11.8567C19.1583 11.1729 19.7703 10.4761 20.3759 9.77931C21.0726 8.97178 21.1963 7.80607 20.6949 6.86179C19.8745 5.31837 18.6895 4.13314 17.1463 3.31259C16.7491 3.10419 16.3324 3 15.9091 3Z" fill="white"/>
</svg>
