<svg width="24" height="24" viewBox="0 0 24 24" fill="none" xmlns="http://www.w3.org/2000/svg">
<path d="M9.00707 15.0032C9.00707 14.4494 9.45617 14.0003 10.0037 14.0003H14.0025C14.5561 14.0003 15.0052 14.4494 15.0052 15.0032C15.0052 15.5569 14.5561 15.9998 14.0025 15.9998H10.0037C9.45002 16.006 9.00707 15.5569 9.00707 15.0032ZM6.50323 11.0042C6.50323 10.4504 6.95232 10.0075 7.506 10.0075H16.5063C17.06 10.0075 17.5029 10.4566 17.5029 11.0042C17.5029 11.5579 17.0538 12.007 16.5063 12.007H7.506C6.95232 12.0008 6.50323 11.5579 6.50323 11.0042ZM11.837 3C10.096 3.00615 8.36112 3.10459 6.62012 3.28916C4.33159 3.5291 2.52292 5.36248 2.23993 7.64499C2.08613 8.90622 2.00615 10.1674 2 11.4287V11.5763C2.00615 12.8376 2.07998 14.0988 2.23993 15.3661C2.52292 17.6487 4.33159 19.4821 6.62012 19.722C8.31806 19.9004 10.016 19.9988 11.7139 20.0112H12.2861C13.984 19.9988 15.6819 19.9066 17.3799 19.722C19.6684 19.4821 21.4771 17.6487 21.7601 15.3661C21.92 14.0803 22 12.7945 22 11.5086C22 10.2228 21.92 8.93698 21.7601 7.65115C21.4771 5.36864 19.6684 3.53524 17.3799 3.2953C15.6389 3.11073 13.904 3.01229 12.163 3.00614H11.837V3Z" fill="white"/>
</svg>
