<svg width="24" height="24" viewBox="0 0 24 24" fill="none" xmlns="http://www.w3.org/2000/svg">
<path d="M18.8423 17.0631L16.2046 14.7874C17.0793 13.5266 17.4376 11.9785 17.2059 10.4616C16.9742 8.94473 16.1702 7.57424 14.959 6.63196C13.7479 5.68969 12.2218 5.24725 10.6945 5.39563C9.16721 5.544 7.75479 6.27191 6.7477 7.42969C5.7406 8.58746 5.21537 10.0871 5.28 11.6202C5.34463 13.1534 5.99421 14.6035 7.09518 15.6724C8.19615 16.7413 9.66481 17.3477 11.1992 17.367C12.7336 17.3863 14.217 16.817 15.3445 15.7762L17.9623 18.0532C18.0285 18.1113 18.1055 18.1556 18.1888 18.1838C18.2722 18.2119 18.3604 18.2232 18.4482 18.2171C18.536 18.211 18.6217 18.1876 18.7004 18.1482C18.7791 18.1087 18.8492 18.0541 18.9067 17.9875C19.0179 17.8552 19.0734 17.6848 19.0614 17.5123C19.0494 17.3398 18.9708 17.1788 18.8423 17.0631ZM11.6136 16.0358C10.6928 16.0999 9.77373 15.8895 8.97255 15.4313C8.17137 14.973 7.52407 14.2875 7.1125 13.4613C6.70094 12.6352 6.5436 11.7056 6.66038 10.79C6.77715 9.87445 7.1628 9.01407 7.76856 8.31769C8.37431 7.6213 9.17297 7.12019 10.0635 6.8777C10.9541 6.63522 11.8965 6.66226 12.7717 6.95541C13.6469 7.24856 14.4155 7.79465 14.9804 8.52463C15.5452 9.2546 15.8809 10.1357 15.9449 11.0564C16.0309 12.2911 15.6228 13.5094 14.8105 14.4432C13.9982 15.377 12.8482 15.9499 11.6136 16.0358Z" fill="white"/>
</svg>
